# Blender v2.83.5 OBJ File: ''
# www.blender.org
o Cube
v 1.000000 1.000000 -1.000000
v 1.000000 -1.000000 -1.000000
v 1.000000 1.000000 1.000000
v 1.000000 -1.000000 1.000000
v -1.000000 1.000000 -1.000000
v -1.000000 -1.000000 -1.000000
v -1.000000 1.000000 1.000000
v -1.000000 -1.000000 1.000000
vt 0.848228 0.799606
vt 0.848228 0.799606
vt 0.848228 0.799606
vt 0.848228 0.799606
vt 0.848228 0.799606
vt 0.703642 0.685039
vt 0.703642 0.685039
vt 0.703642 0.685039
vt 0.703642 0.685039
vt 0.848228 0.799606
vt 0.703642 0.685039
vt 0.848228 0.799606
vt 0.703642 0.685039
vt 0.703642 0.685039
vn 0.0000 1.0000 0.0000
vn 0.0000 0.0000 1.0000
vn -1.0000 0.0000 0.0000
vn 0.0000 -1.0000 0.0000
vn 1.0000 0.0000 0.0000
vn 0.0000 0.0000 -1.0000
s off
f 5/1/1 3/2/1 1/3/1
f 3/2/2 8/4/2 4/5/2
f 7/6/3 6/7/3 8/8/3
f 2/9/4 8/8/4 6/7/4
f 1/3/5 4/5/5 2/10/5
f 5/11/6 2/9/6 6/7/6
f 5/1/1 7/12/1 3/2/1
f 3/2/2 7/12/2 8/4/2
f 7/6/3 5/11/3 6/7/3
f 2/9/4 4/13/4 8/8/4
f 1/3/5 3/2/5 4/5/5
f 5/11/6 1/14/6 2/9/6